<?xml version="1.0" encoding="UTF-8" standalone="no"?>
<!-- Created with Keyshape -->
<svg xmlns="http://www.w3.org/2000/svg" viewBox="0 0 750 750" text-rendering="geometricPrecision" shape-rendering="geometricPrecision" style="white-space: pre;">
    <defs>
        <mask id="Mask-2">
            <path id="path5806-2" d="M293.89,418.887M626.278,469.794C520.325,444.341,414.371,418.888,293.585,418.888M626.264,469.79C732.217,495.243,838.17,520.695,958.953,520.695M1291.34,469.789C1185.39,495.242,1079.43,520.695,958.656,520.695M1291.32,469.793C1397.28,444.341,1503.23,418.888,1624.02,418.888M1956.4,469.794C1850.45,444.341,1744.49,418.889,1623.71,418.889M1956.34,469.782C2062.29,495.235,2168.25,520.688,2289.04,520.688M2621.42,469.781C2515.46,495.234,2409.51,520.687,2288.73,520.687M2621.4,469.785C2727.35,444.333,2833.31,418.88,2954.1,418.88M3286.48,469.786C3180.52,444.334,3074.58,418.881,2953.79,418.881M3286.65,469.797C3392.6,495.25,3498.55,520.703,3619.34,520.703M3951.73,469.796C3845.78,495.249,3739.82,520.702,3619.03,520.702M3951.71,469.801C4057.65,444.348,4163.61,418.895,4284.4,418.895M4616.79,469.802C4510.83,444.349,4404.88,418.896,4284.09,418.896M4616.73,469.789C4722.68,495.242,4828.62,520.695,4949.41,520.695M5281.81,469.788C5175.85,495.241,5069.9,520.694,4949.11,520.694M5281.78,469.793C5387.74,444.34,5493.68,418.887,5614.47,418.887M5946.86,469.794C5840.91,444.341,5734.95,418.888,5614.17,418.888M5946.85,469.79C6052.8,495.243,6158.75,520.695,6279.54,520.695M6611.93,469.789C6505.98,495.242,6400.02,520.695,6279.23,520.695M6611.91,469.793C6717.87,444.341,6823.81,418.888,6944.6,418.888M6944.29,418.889" fill="none" fill-opacity="0.75" fill-rule="evenodd" stroke="#79bda8" stroke-dasharray="none" stroke-linecap="butt" stroke-linejoin="miter" stroke-miterlimit="4" stroke-opacity="1" stroke-width="500" transform="translate(-962.632,-130.918) scale(0.349428,0.622295)" style="animation: 2s linear infinite both path5806-2_t;"/>
        </mask>
        <mask id="Mask-1">
            <path id="path5806-4" d="M293.89,418.887M626.278,469.794C520.325,444.341,414.371,418.888,293.585,418.888M626.264,469.79C732.217,495.243,838.17,520.695,958.953,520.695M1291.34,469.789C1185.39,495.242,1079.43,520.695,958.656,520.695M1291.32,469.793C1397.28,444.341,1503.23,418.888,1624.02,418.888M1956.4,469.794C1850.45,444.341,1744.49,418.889,1623.71,418.889M1956.34,469.782C2062.29,495.235,2168.25,520.688,2289.04,520.688M2621.42,469.781C2515.46,495.234,2409.51,520.687,2288.73,520.687M2621.4,469.785C2727.35,444.333,2833.31,418.88,2954.1,418.88M3286.48,469.786C3180.52,444.334,3074.58,418.881,2953.79,418.881M3286.65,469.797C3392.6,495.25,3498.55,520.703,3619.34,520.703M3951.73,469.796C3845.78,495.249,3739.82,520.702,3619.03,520.702M3951.71,469.801C4057.65,444.348,4163.61,418.895,4284.4,418.895M4616.79,469.802C4510.83,444.349,4404.88,418.896,4284.09,418.896M4616.73,469.789C4722.68,495.242,4828.62,520.695,4949.41,520.695M5281.81,469.788C5175.85,495.241,5069.9,520.694,4949.11,520.694M5281.78,469.793C5387.74,444.34,5493.68,418.887,5614.47,418.887M5946.86,469.794C5840.91,444.341,5734.95,418.888,5614.17,418.888M5946.85,469.79C6052.8,495.243,6158.75,520.695,6279.54,520.695M6611.93,469.789C6505.98,495.242,6400.02,520.695,6279.23,520.695M6611.91,469.793C6717.87,444.341,6823.81,418.888,6944.6,418.888M6944.29,418.889" fill="none" fill-opacity="0.75" fill-rule="evenodd" stroke="#79bda8" stroke-dasharray="none" stroke-linecap="butt" stroke-linejoin="miter" stroke-miterlimit="4" stroke-opacity="1" stroke-width="500" style="transform: scale(0.349428,0.622295); animation: 2s linear infinite both path5806-4_mo; offset-path: path('M-1788.7,-118.297C-1356.54,-110.574,-1172.16,-111.449,-853.23,-118.166'); offset-rotate: 0deg;"/>
        </mask>
    </defs>
    <style>
@keyframes path5806-2_t { 0% { transform: translate(-962.632px,-130.918px) scale(0.349428,0.622295); } 100% { transform: translate(-1884.75px,-129.918px) scale(0.349428,0.622295); } }
@keyframes path5806-4_mo { 0% { offset-distance: 0%; animation-timing-function: cubic-bezier(0,0,1,1); } 100% { offset-distance: 100%; } }
@keyframes a0_o { 0% { opacity: 0; } 100% { opacity: 1; } }
@keyframes a0_f { 0% { fill: #f2f2f2; } 100% { fill: #67ac7d; } }
@keyframes a0_mo { 0% { offset-distance: 0%; animation-timing-function: cubic-bezier(0.42,0,1,1); } 100% { offset-distance: 100%; } }
@keyframes a1_o { 0% { opacity: 0; } 4% { opacity: 1; } 84% { opacity: 1; } 100% { opacity: 0; } }
@keyframes a1_f { 0% { fill: #f2f2f2; } 100% { fill: #67ac7d; } }
@keyframes a1_mo { 0% { offset-distance: 0%; animation-timing-function: cubic-bezier(0.42,0,1,1); } 100% { offset-distance: 100%; } }
@keyframes a2_o { 0% { opacity: 1; } 100% { opacity: 0; } }
@keyframes a2_f { 0% { fill: #f2f2f2; } 100% { fill: #67ac7d; } }
@keyframes a2_mo { 0% { offset-distance: 0%; animation-timing-function: cubic-bezier(0.42,0,1,1); } 100% { offset-distance: 100%; } }
    </style>
    <g transform="translate(375,363.4) translate(-260.335,-351.676)">
        <ellipse rx="273.5" ry="273.5" fill="#f2f2f2" stroke="none" filter="drop-shadow(4px 5px 10px rgba(0,0,0,0.50))" transform="translate(260.335,456.778) scale(0.951865,0.943962)"/>
        <rect width="201" height="184" fill="#f2f2f2" stroke="none" filter="drop-shadow(0px -20px 10px rgba(0,0,0,0.50))" transform="translate(340.835,168.356) rotate(15.0062) scale(0.940687,0.942391) translate(-100.5,-88.5)"/>
        <ellipse rx="237.589" ry="237.589" fill="#a9d7b7" stroke="none" mask="url(#Mask-2)" transform="translate(231.805,428.249) translate(28.5293,28.5293)"/>
        <ellipse rx="237.589" ry="237.589" fill="#75c38d" stroke="none" mask="url(#Mask-1)" transform="translate(231.805,428.249) translate(28.5293,28.5293)"/>
        <ellipse rx="33" ry="33" stroke="none" fill="#f2f2f2" fill-opacity="0.75" stroke-width="0" opacity="0" style="transform: scale(0.687784,0.687784); animation: 0.1s linear 1.9s both a0_o, 1.4s linear 2.3s both a0_f, 2s linear 2s both a0_mo; offset-path: path('M245.815,660.141C385.875,536.42,408.145,324.68,339.985,79.8681'); offset-rotate: 0deg;"/>
        <ellipse rx="33" ry="33" stroke="none" fill="#f2f2f2" fill-opacity="0.75" stroke-width="0" opacity="0" style="transform: scale(0.754592,0.754592); animation: 2.5s linear 0.9s both a1_o, 1.3s linear 1.4s both a1_f, 2s linear 1s both a1_mo; offset-path: path('M293.415,657.936C184.985,420.06,319.955,151.771,413.335,87.3811'); offset-rotate: 0deg;"/>
        <ellipse rx="33" ry="33" stroke="none" fill="#f2f2f2" fill-opacity="0.75" stroke-width="0" opacity="1" style="transform: scale(0.785385,0.785385); animation: 0.4s linear 2s both a2_o, 1.3s linear 0.4s both a2_f, 2s linear both a2_mo; offset-path: path('M260.335,633.035C141.945,535.074,198.025,285.928,368.215,87.3811'); offset-rotate: 0deg;"/>
        <rect width="349.65" height="163.9" fill="#dddddd" stroke="none" rx="70" filter="drop-shadow(0px 0px 10px rgba(0,0,0,0.50))" stroke-linecap="butt" transform="translate(368.215,79.8681) rotate(15.0062) scale(0.78149,0.562097) translate(-174.825,-81.95)"/>
    </g>
</svg>
