<?xml version="1.0" encoding="UTF-8" standalone="no"?>
<!-- Created with Keyshape -->
<svg xmlns="http://www.w3.org/2000/svg" shape-rendering="geometricPrecision" text-rendering="geometricPrecision" viewBox="0 0 1920 1080" style="white-space: pre;">
    <text fill="#dddddd" fill-opacity="0.75" font-size="450" font-family="Arial Black" font-weight="900" letter-spacing="0em" word-spacing="0em" stroke="none" filter="none" opacity="1" transform="translate(144.915,763.969)" style="line-height: 21px;">NAN</text>
    <defs>
        <symbol id="Symbol-1" preserveAspectRatio="none" width="1099.75" height="634.57" viewBox="0 0 1099.75 634.57" overflow="visible">
            <text fill="#f2f2f2" font-size="450" font-family="'Arial Black'" letter-spacing="0em" word-spacing="0em" stroke="none" text-anchor="start" font-weight="900" filter="drop-shadow(1px 1px 15px rgba(0,0,0,0.50)) drop-shadow(-1px -1px 15px rgba(0,0,0,0.50))" transform="translate(0,495.264)" style="line-height: 10px;">NAN</text>
        </symbol>
        <mask id="Mask-1">
            <path id="path5806" d="M293.89,418.887M626.278,469.794C520.325,444.341,414.371,418.888,293.585,418.888M626.264,469.79C732.217,495.243,838.17,520.695,958.953,520.695M1291.34,469.789C1185.39,495.242,1079.43,520.695,958.656,520.695M1291.32,469.793C1397.28,444.341,1503.23,418.888,1624.02,418.888M1956.4,469.794C1850.45,444.341,1744.49,418.889,1623.71,418.889M1956.34,469.782C2062.29,495.235,2168.25,520.688,2289.04,520.688M2621.42,469.781C2515.46,495.234,2409.51,520.687,2288.73,520.687M2621.4,469.785C2727.35,444.333,2833.31,418.88,2954.1,418.88M3286.48,469.786C3180.52,444.334,3074.58,418.881,2953.79,418.881M3286.65,469.797C3392.6,495.25,3498.55,520.703,3619.34,520.703M3951.73,469.796C3845.78,495.249,3739.82,520.702,3619.03,520.702M3951.71,469.801C4057.65,444.348,4163.61,418.895,4284.4,418.895M4616.79,469.802C4510.83,444.349,4404.88,418.896,4284.09,418.896M4616.73,469.789C4722.68,495.242,4828.62,520.695,4949.41,520.695M5281.81,469.788C5175.85,495.241,5069.9,520.694,4949.11,520.694M5281.78,469.793C5387.74,444.34,5493.68,418.887,5614.47,418.887M5946.86,469.794C5840.91,444.341,5734.95,418.888,5614.17,418.888M5946.85,469.79C6052.8,495.243,6158.75,520.695,6279.54,520.695M6611.93,469.789C6505.98,495.242,6400.02,520.695,6279.23,520.695M6611.91,469.793C6717.87,444.341,6823.81,418.888,6944.6,418.888M6944.29,418.889" fill="none" fill-opacity="0.75" fill-rule="evenodd" stroke="#759f75" stroke-dasharray="none" stroke-linecap="butt" stroke-linejoin="miter" stroke-miterlimit="4" stroke-opacity="1" stroke-width="500" transform="translate(-401.473,-108.116) scale(0.349428,0.622295)"/>
        </mask>
        <mask id="Mask-2">
            <path id="path5806-2" d="M293.89,418.887M626.278,469.794C520.325,444.341,414.371,418.888,293.585,418.888M626.264,469.79C732.217,495.243,838.17,520.695,958.953,520.695M1291.34,469.789C1185.39,495.242,1079.43,520.695,958.656,520.695M1291.32,469.793C1397.28,444.341,1503.23,418.888,1624.02,418.888M1956.4,469.794C1850.45,444.341,1744.49,418.889,1623.71,418.889M1956.34,469.782C2062.29,495.235,2168.25,520.688,2289.04,520.688M2621.42,469.781C2515.46,495.234,2409.51,520.687,2288.73,520.687M2621.4,469.785C2727.35,444.333,2833.31,418.88,2954.1,418.88M3286.48,469.786C3180.52,444.334,3074.58,418.881,2953.79,418.881M3286.65,469.797C3392.6,495.25,3498.55,520.703,3619.34,520.703M3951.73,469.796C3845.78,495.249,3739.82,520.702,3619.03,520.702M3951.71,469.801C4057.65,444.348,4163.61,418.895,4284.4,418.895M4616.79,469.802C4510.83,444.349,4404.88,418.896,4284.09,418.896M4616.73,469.789C4722.68,495.242,4828.62,520.695,4949.41,520.695M5281.81,469.788C5175.85,495.241,5069.9,520.694,4949.11,520.694M5281.78,469.793C5387.74,444.34,5493.68,418.887,5614.47,418.887M5946.86,469.794C5840.91,444.341,5734.95,418.888,5614.17,418.888M5946.85,469.79C6052.8,495.243,6158.75,520.695,6279.54,520.695M6611.93,469.789C6505.98,495.242,6400.02,520.695,6279.23,520.695M6611.91,469.793C6717.87,444.341,6823.81,418.888,6944.6,418.888M6944.29,418.889" fill="none" fill-opacity="0.75" fill-rule="evenodd" stroke="#79bda8" stroke-dasharray="none" stroke-linecap="butt" stroke-linejoin="miter" stroke-miterlimit="4" stroke-opacity="1" stroke-width="500" transform="translate(-2127.75,-92.5997) scale(0.349428,0.622295)"/>
        </mask>
        <mask id="Mask-4">
            <g transform="translate(2745.71,93.9851) scale(2.86182,1.60695) translate(-549.875,-317.285)">
                <text fill="#f2f2f2" font-size="450" font-family="'Arial Black'" letter-spacing="0em" word-spacing="0em" stroke="none" text-anchor="start" font-weight="900" filter="drop-shadow(1px 1px 15px rgba(0,0,0,0.50)) drop-shadow(-1px -1px 15px rgba(0,0,0,0.50))" transform="translate(0,495.264)" style="line-height: 10px;">NAN</text>
            </g>
        </mask>
        <mask id="Mask-3">
            <g transform="translate(3715.87,63.6112) scale(2.86182,1.60695) translate(-549.875,-317.285)">
                <text fill="#f2f2f2" font-size="450" font-family="'Arial Black'" letter-spacing="0em" word-spacing="0em" stroke="none" text-anchor="start" font-weight="900" filter="drop-shadow(1px 1px 15px rgba(0,0,0,0.50)) drop-shadow(-1px -1px 15px rgba(0,0,0,0.50))" transform="translate(0,495.264)" style="line-height: 10px;">NAN</text>
            </g>
        </mask>
    </defs>
    <ellipse rx="273.5" ry="273.5" fill="#f2f2f2" stroke="none" filter="drop-shadow(4px 5px 10px rgba(0,0,0,0.50))" transform="translate(1505,638.102) scale(0.951865,0.943962)"/>
    <ellipse rx="273.5" ry="273.5" fill="#75c38d" stroke="none" filter="none" mask="url(#Mask-1),url(#Mask-2)" transform="translate(1505,638.102) scale(0.894542,0.887115)"/>
    <rect width="201" height="184" fill="#f2f2f2" stroke="none" filter="drop-shadow(0px -20px 10px rgba(0,0,0,0.50))" transform="translate(1585.5,349.68) rotate(15.0062) scale(0.940687,0.942391) translate(-100.5,-88.5)"/>
    <rect width="349.65" height="163.9" fill="#dddddd" stroke="none" rx="70" filter="drop-shadow(0px 0px 10px rgba(0,0,0,0.50))" stroke-linecap="butt" transform="translate(1612.88,261.192) rotate(15.0062) scale(0.78149,0.562097) translate(-174.825,-81.95)"/>
    <ellipse rx="33" ry="33" stroke="none" fill="#75c38d" fill-opacity="0.75" stroke-width="0" transform="translate(1531,569.154) scale(0.785385,0.785385)"/>
    <ellipse rx="33" ry="33" stroke="none" fill="#f2f2f2" fill-opacity="0.75" stroke-width="0" transform="translate(1570,812.154) scale(0.754592,0.754592)"/>
    <ellipse rx="33" ry="33" stroke="none" fill="#f2f2f2" fill-opacity="0.75" stroke-width="0" transform="translate(1410.46,745.154) scale(0.687784,0.687784)"/>
    <text fill="#a26060" font-size="300" font-family="Baloo" letter-spacing="0em" word-spacing="0em" stroke="none" text-anchor="start" opacity="1" transform="translate(156.54,381.953)" style="line-height: 21px; white-space: pre;">I</text>
    <text fill="#a26060" font-size="300" font-family="Baloo" letter-spacing="0em" word-spacing="0em" stroke="none" text-anchor="start" opacity="1" transform="translate(343.54,386.036)" style="line-height: 21px; white-space: pre;">n</text>
    <text fill="#a26060" font-size="300" font-family="Baloo" letter-spacing="0em" word-spacing="0em" stroke="none" text-anchor="start" opacity="1" transform="translate(614.79,386.036)" style="line-height: 21px; white-space: pre;">s </text>
    <text fill="#a26060" font-size="300" font-family="Baloo" letter-spacing="0em" word-spacing="0em" stroke="none" text-anchor="start" opacity="1" transform="translate(856.79,381.953)" style="line-height: 21px; white-space: pre;">t </text>
    <text fill="#a26060" font-size="300" font-family="Baloo" letter-spacing="0em" word-spacing="0em" stroke="none" text-anchor="start" opacity="1" transform="translate(1066.95,386.036)" style="line-height: 21px; white-space: pre;">a </text>
    <path id="path5806-4" d="M293.89,418.887M626.278,469.794C520.325,444.341,414.371,418.888,293.585,418.888M626.264,469.79C732.217,495.243,838.17,520.695,958.953,520.695M1291.34,469.789C1185.39,495.242,1079.43,520.695,958.656,520.695M1291.32,469.793C1397.28,444.341,1503.23,418.888,1624.02,418.888M1956.4,469.794C1850.45,444.341,1744.49,418.889,1623.71,418.889M1956.34,469.782C2062.29,495.235,2168.25,520.688,2289.04,520.688M2621.42,469.781C2515.46,495.234,2409.51,520.687,2288.73,520.687M2621.4,469.785C2727.35,444.333,2833.31,418.88,2954.1,418.88M3286.48,469.786C3180.52,444.334,3074.58,418.881,2953.79,418.881M3286.65,469.797C3392.6,495.25,3498.55,520.703,3619.34,520.703M3951.73,469.796C3845.78,495.249,3739.82,520.702,3619.03,520.702M3951.71,469.801C4057.65,444.348,4163.61,418.895,4284.4,418.895M4616.79,469.802C4510.83,444.349,4404.88,418.896,4284.09,418.896M4616.73,469.789C4722.68,495.242,4828.62,520.695,4949.41,520.695M5281.81,469.788C5175.85,495.241,5069.9,520.694,4949.11,520.694M5281.78,469.793C5387.74,444.34,5493.68,418.887,5614.47,418.887M5946.86,469.794C5840.91,444.341,5734.95,418.888,5614.17,418.888M5946.85,469.79C6052.8,495.243,6158.75,520.695,6279.54,520.695M6611.93,469.789C6505.98,495.242,6400.02,520.695,6279.23,520.695M6611.91,469.793C6717.87,444.341,6823.81,418.888,6944.6,418.888M6944.29,418.889" fill="none" fill-opacity="0.75" fill-rule="evenodd" stroke="#a9d7b7" stroke-dasharray="none" stroke-linecap="butt" stroke-linejoin="miter" stroke-miterlimit="4" stroke-opacity="1" stroke-width="500" opacity="1" mask="url(#Mask-4)" transform="translate(-264.638,526.586) scale(0.349428,0.622295)"/>
    <path id="path5806-3" d="M293.89,418.887M626.278,469.794C520.325,444.341,414.371,418.888,293.585,418.888M626.264,469.79C732.217,495.243,838.17,520.695,958.953,520.695M1291.34,469.789C1185.39,495.242,1079.43,520.695,958.656,520.695M1291.32,469.793C1397.28,444.341,1503.23,418.888,1624.02,418.888M1956.4,469.794C1850.45,444.341,1744.49,418.889,1623.71,418.889M1956.34,469.782C2062.29,495.235,2168.25,520.688,2289.04,520.688M2621.42,469.781C2515.46,495.234,2409.51,520.687,2288.73,520.687M2621.4,469.785C2727.35,444.333,2833.31,418.88,2954.1,418.88M3286.48,469.786C3180.52,444.334,3074.58,418.881,2953.79,418.881M3286.65,469.797C3392.6,495.25,3498.55,520.703,3619.34,520.703M3951.73,469.796C3845.78,495.249,3739.82,520.702,3619.03,520.702M3951.71,469.801C4057.65,444.348,4163.61,418.895,4284.4,418.895M4616.79,469.802C4510.83,444.349,4404.88,418.896,4284.09,418.896M4616.73,469.789C4722.68,495.242,4828.62,520.695,4949.41,520.695M5281.81,469.788C5175.85,495.241,5069.9,520.694,4949.11,520.694M5281.78,469.793C5387.74,444.34,5493.68,418.887,5614.47,418.887M5946.86,469.794C5840.91,444.341,5734.95,418.888,5614.17,418.888M5946.85,469.79C6052.8,495.243,6158.75,520.695,6279.54,520.695M6611.93,469.789C6505.98,495.242,6400.02,520.695,6279.23,520.695M6611.91,469.793C6717.87,444.341,6823.81,418.888,6944.6,418.888M6944.29,418.889" fill="none" fill-opacity="0.75" fill-rule="evenodd" stroke="#75c38d" stroke-dasharray="none" stroke-linecap="butt" stroke-linejoin="miter" stroke-miterlimit="4" stroke-opacity="1" stroke-width="500" opacity="0.7" mask="url(#Mask-3)" transform="translate(-603.638,545.487) scale(0.349428,0.622295)"/>
</svg>
