<?xml version="1.0" encoding="UTF-8" standalone="no"?>
<!-- Created with Keyshape -->
<svg xmlns="http://www.w3.org/2000/svg" xmlns:xlink="http://www.w3.org/1999/xlink" viewBox="0 0 1620 750" text-rendering="geometricPrecision" shape-rendering="geometricPrecision" style="white-space: pre;">
    <defs>
        <filter id="Filter-0" color-interpolation-filters="sRGB">
            <feGaussianBlur in="SourceAlpha" stdDeviation="10"/>
            <feOffset dx="4" dy="5" result="offsetblur"/>
            <feFlood flood-color="#000000" flood-opacity="0.5"/>
            <feComposite in2="offsetblur" operator="in"/>
            <feMerge>
                <feMergeNode/>
                <feMergeNode in="SourceGraphic"/>
            </feMerge>
        </filter>
        <filter id="Filter-1" x="-16%" y="-28%" width="147%" height="173%" color-interpolation-filters="sRGB">
            <feGaussianBlur in="SourceAlpha" stdDeviation="10"/>
            <feOffset dx="0" dy="-20" result="offsetblur"/>
            <feFlood flood-color="#000000" flood-opacity="0.5"/>
            <feComposite in2="offsetblur" operator="in"/>
            <feMerge>
                <feMergeNode/>
                <feMergeNode in="SourceGraphic"/>
            </feMerge>
        </filter>
        <filter id="Filter-2" x="-10%" y="-19%" width="127%" height="157%" color-interpolation-filters="sRGB">
            <feGaussianBlur in="SourceAlpha" stdDeviation="10"/>
            <feOffset dx="0" dy="0" result="offsetblur"/>
            <feFlood flood-color="#000000" flood-opacity="0.5"/>
            <feComposite in2="offsetblur" operator="in"/>
            <feMerge>
                <feMergeNode/>
                <feMergeNode in="SourceGraphic"/>
            </feMerge>
        </filter>
        <mask id="Mask-3">
            <path id="path5806-6" d="M293.89,418.887M626.278,469.794C520.325,444.341,414.371,418.888,293.585,418.888M626.264,469.79C732.217,495.243,838.17,520.695,958.953,520.695M1291.34,469.789C1185.39,495.242,1079.43,520.695,958.656,520.695M1291.32,469.793C1397.28,444.341,1503.23,418.888,1624.02,418.888M1956.4,469.794C1850.45,444.341,1744.49,418.889,1623.71,418.889M1956.34,469.782C2062.29,495.235,2168.25,520.688,2289.04,520.688M2621.42,469.781C2515.46,495.234,2409.51,520.687,2288.73,520.687M2621.4,469.785C2727.35,444.333,2833.31,418.88,2954.1,418.88M3286.48,469.786C3180.52,444.334,3074.58,418.881,2953.79,418.881M3286.65,469.797C3392.6,495.25,3498.55,520.703,3619.34,520.703M3951.73,469.796C3845.78,495.249,3739.82,520.702,3619.03,520.702M3951.71,469.801C4057.65,444.348,4163.61,418.895,4284.4,418.895M4616.79,469.802C4510.83,444.349,4404.88,418.896,4284.09,418.896M4616.73,469.789C4722.68,495.242,4828.62,520.695,4949.41,520.695M5281.81,469.788C5175.85,495.241,5069.9,520.694,4949.11,520.694M5281.78,469.793C5387.74,444.34,5493.68,418.887,5614.47,418.887M5946.86,469.794C5840.91,444.341,5734.95,418.888,5614.17,418.888M5946.85,469.79C6052.8,495.243,6158.75,520.695,6279.54,520.695M6611.93,469.789C6505.98,495.242,6400.02,520.695,6279.23,520.695M6611.91,469.793C6717.87,444.341,6823.81,418.888,6944.6,418.888M6944.29,418.889" fill="none" fill-opacity="0.75" fill-rule="evenodd" stroke="#79bda8" stroke-dasharray="none" stroke-linecap="butt" stroke-linejoin="miter" stroke-miterlimit="4" stroke-opacity="1" stroke-width="500" transform="translate(-1360.51,-244.164) translate(0,0) scale(0.349428,0.622295) translate(0,0)"/>
        </mask>
        <mask id="Mask-6">
            <path id="path5806-7" d="M293.89,418.887M626.278,469.794C520.325,444.341,414.371,418.888,293.585,418.888M626.264,469.79C732.217,495.243,838.17,520.695,958.953,520.695M1291.34,469.789C1185.39,495.242,1079.43,520.695,958.656,520.695M1291.32,469.793C1397.28,444.341,1503.23,418.888,1624.02,418.888M1956.4,469.794C1850.45,444.341,1744.49,418.889,1623.71,418.889M1956.34,469.782C2062.29,495.235,2168.25,520.688,2289.04,520.688M2621.42,469.781C2515.46,495.234,2409.51,520.687,2288.73,520.687M2621.4,469.785C2727.35,444.333,2833.31,418.88,2954.1,418.88M3286.48,469.786C3180.52,444.334,3074.58,418.881,2953.79,418.881M3286.65,469.797C3392.6,495.25,3498.55,520.703,3619.34,520.703M3951.73,469.796C3845.78,495.249,3739.82,520.702,3619.03,520.702M3951.71,469.801C4057.65,444.348,4163.61,418.895,4284.4,418.895M4616.79,469.802C4510.83,444.349,4404.88,418.896,4284.09,418.896M4616.73,469.789C4722.68,495.242,4828.62,520.695,4949.41,520.695M5281.81,469.788C5175.85,495.241,5069.9,520.694,4949.11,520.694M5281.78,469.793C5387.74,444.34,5493.68,418.887,5614.47,418.887M5946.86,469.794C5840.91,444.341,5734.95,418.888,5614.17,418.888M5946.85,469.79C6052.8,495.243,6158.75,520.695,6279.54,520.695M6611.93,469.789C6505.98,495.242,6400.02,520.695,6279.23,520.695M6611.91,469.793C6717.87,444.341,6823.81,418.888,6944.6,418.888M6944.29,418.889" fill="none" fill-opacity="0.75" fill-rule="evenodd" stroke="#79bda8" stroke-dasharray="none" stroke-linecap="butt" stroke-linejoin="miter" stroke-miterlimit="4" stroke-opacity="1" stroke-width="500" transform="translate(-68.3694,-255.262) translate(0,0) scale(0.349428,0.622295) translate(0,0)"/>
        </mask>
        <mask id="Mask-4">
            <path id="path5806-3" d="M293.89,418.887M626.278,469.794C520.325,444.341,414.371,418.888,293.585,418.888M626.264,469.79C732.217,495.243,838.17,520.695,958.953,520.695M1291.34,469.789C1185.39,495.242,1079.43,520.695,958.656,520.695M1291.32,469.793C1397.28,444.341,1503.23,418.888,1624.02,418.888M1956.4,469.794C1850.45,444.341,1744.49,418.889,1623.71,418.889M1956.34,469.782C2062.29,495.235,2168.25,520.688,2289.04,520.688M2621.42,469.781C2515.46,495.234,2409.51,520.687,2288.73,520.687M2621.4,469.785C2727.35,444.333,2833.31,418.88,2954.1,418.88M3286.48,469.786C3180.52,444.334,3074.58,418.881,2953.79,418.881M3286.65,469.797C3392.6,495.25,3498.55,520.703,3619.34,520.703M3951.73,469.796C3845.78,495.249,3739.82,520.702,3619.03,520.702M3951.71,469.801C4057.65,444.348,4163.61,418.895,4284.4,418.895M4616.79,469.802C4510.83,444.349,4404.88,418.896,4284.09,418.896M4616.73,469.789C4722.68,495.242,4828.62,520.695,4949.41,520.695M5281.81,469.788C5175.85,495.241,5069.9,520.694,4949.11,520.694M5281.78,469.793C5387.74,444.34,5493.68,418.887,5614.47,418.887M5946.86,469.794C5840.91,444.341,5734.95,418.888,5614.17,418.888M5946.85,469.79C6052.8,495.243,6158.75,520.695,6279.54,520.695M6611.93,469.789C6505.98,495.242,6400.02,520.695,6279.23,520.695M6611.91,469.793C6717.87,444.341,6823.81,418.888,6944.6,418.888M6944.29,418.889" fill="none" fill-opacity="0.75" fill-rule="evenodd" stroke="#79bda8" stroke-dasharray="none" stroke-linecap="butt" stroke-linejoin="miter" stroke-miterlimit="4" stroke-opacity="1" stroke-width="500" transform="translate(-68.3694,-255.262) translate(0,0) scale(0.349428,0.622295) translate(0,0)"/>
        </mask>
        <mask id="Mask-5">
            <path id="path5806-5" d="M293.89,418.887M626.278,469.794C520.325,444.341,414.371,418.888,293.585,418.888M626.264,469.79C732.217,495.243,838.17,520.695,958.953,520.695M1291.34,469.789C1185.39,495.242,1079.43,520.695,958.656,520.695M1291.32,469.793C1397.28,444.341,1503.23,418.888,1624.02,418.888M1956.4,469.794C1850.45,444.341,1744.49,418.889,1623.71,418.889M1956.34,469.782C2062.29,495.235,2168.25,520.688,2289.04,520.688M2621.42,469.781C2515.46,495.234,2409.51,520.687,2288.73,520.687M2621.4,469.785C2727.35,444.333,2833.31,418.88,2954.1,418.88M3286.48,469.786C3180.52,444.334,3074.58,418.881,2953.79,418.881M3286.65,469.797C3392.6,495.25,3498.55,520.703,3619.34,520.703M3951.73,469.796C3845.78,495.249,3739.82,520.702,3619.03,520.702M3951.71,469.801C4057.65,444.348,4163.61,418.895,4284.4,418.895M4616.79,469.802C4510.83,444.349,4404.88,418.896,4284.09,418.896M4616.73,469.789C4722.68,495.242,4828.62,520.695,4949.41,520.695M5281.81,469.788C5175.85,495.241,5069.9,520.694,4949.11,520.694M5281.78,469.793C5387.74,444.34,5493.68,418.887,5614.47,418.887M5946.86,469.794C5840.91,444.341,5734.95,418.888,5614.17,418.888M5946.85,469.79C6052.8,495.243,6158.75,520.695,6279.54,520.695M6611.93,469.789C6505.98,495.242,6400.02,520.695,6279.23,520.695M6611.91,469.793C6717.87,444.341,6823.81,418.888,6944.6,418.888M6944.29,418.889" fill="none" fill-opacity="0.75" fill-rule="evenodd" stroke="#79bda8" stroke-dasharray="none" stroke-linecap="butt" stroke-linejoin="miter" stroke-miterlimit="4" stroke-opacity="1" stroke-width="500" transform="translate(-1360.51,-244.164) translate(0,0) scale(0.349428,0.622295) translate(0,0)"/>
        </mask>
        <mask id="Mask-7">
            <path id="path5806-8" d="M293.89,418.887M626.278,469.794C520.325,444.341,414.371,418.888,293.585,418.888M626.264,469.79C732.217,495.243,838.17,520.695,958.953,520.695M1291.34,469.789C1185.39,495.242,1079.43,520.695,958.656,520.695M1291.32,469.793C1397.28,444.341,1503.23,418.888,1624.02,418.888M1956.4,469.794C1850.45,444.341,1744.49,418.889,1623.71,418.889M1956.34,469.782C2062.29,495.235,2168.25,520.688,2289.04,520.688M2621.42,469.781C2515.46,495.234,2409.51,520.687,2288.73,520.687M2621.4,469.785C2727.35,444.333,2833.31,418.88,2954.1,418.88M3286.48,469.786C3180.52,444.334,3074.58,418.881,2953.79,418.881M3286.65,469.797C3392.6,495.25,3498.55,520.703,3619.34,520.703M3951.73,469.796C3845.78,495.249,3739.82,520.702,3619.03,520.702M3951.71,469.801C4057.65,444.348,4163.61,418.895,4284.4,418.895M4616.79,469.802C4510.83,444.349,4404.88,418.896,4284.09,418.896M4616.73,469.789C4722.68,495.242,4828.62,520.695,4949.41,520.695M5281.81,469.788C5175.85,495.241,5069.9,520.694,4949.11,520.694M5281.78,469.793C5387.74,444.34,5493.68,418.887,5614.47,418.887M5946.86,469.794C5840.91,444.341,5734.95,418.888,5614.17,418.888M5946.85,469.79C6052.8,495.243,6158.75,520.695,6279.54,520.695M6611.93,469.789C6505.98,495.242,6400.02,520.695,6279.23,520.695M6611.91,469.793C6717.87,444.341,6823.81,418.888,6944.6,418.888M6944.29,418.889" fill="none" fill-opacity="0.75" fill-rule="evenodd" stroke="#79bda8" stroke-dasharray="none" stroke-linecap="butt" stroke-linejoin="miter" stroke-miterlimit="4" stroke-opacity="1" stroke-width="500" transform="translate(-68.3694,-255.262) translate(0,0) scale(0.349428,0.622295) translate(0,0)"/>
        </mask>
        <mask id="Mask-8">
            <path id="path5806-9" d="M293.89,418.887M626.278,469.794C520.325,444.341,414.371,418.888,293.585,418.888M626.264,469.79C732.217,495.243,838.17,520.695,958.953,520.695M1291.34,469.789C1185.39,495.242,1079.43,520.695,958.656,520.695M1291.32,469.793C1397.28,444.341,1503.23,418.888,1624.02,418.888M1956.4,469.794C1850.45,444.341,1744.49,418.889,1623.71,418.889M1956.34,469.782C2062.29,495.235,2168.25,520.688,2289.04,520.688M2621.42,469.781C2515.46,495.234,2409.51,520.687,2288.73,520.687M2621.4,469.785C2727.35,444.333,2833.31,418.88,2954.1,418.88M3286.48,469.786C3180.52,444.334,3074.58,418.881,2953.79,418.881M3286.65,469.797C3392.6,495.25,3498.55,520.703,3619.34,520.703M3951.73,469.796C3845.78,495.249,3739.82,520.702,3619.03,520.702M3951.71,469.801C4057.65,444.348,4163.61,418.895,4284.4,418.895M4616.79,469.802C4510.83,444.349,4404.88,418.896,4284.09,418.896M4616.73,469.789C4722.68,495.242,4828.62,520.695,4949.41,520.695M5281.81,469.788C5175.85,495.241,5069.9,520.694,4949.11,520.694M5281.78,469.793C5387.74,444.34,5493.68,418.887,5614.47,418.887M5946.86,469.794C5840.91,444.341,5734.95,418.888,5614.17,418.888M5946.85,469.79C6052.8,495.243,6158.75,520.695,6279.54,520.695M6611.93,469.789C6505.98,495.242,6400.02,520.695,6279.23,520.695M6611.91,469.793C6717.87,444.341,6823.81,418.888,6944.6,418.888M6944.29,418.889" fill="none" fill-opacity="0.75" fill-rule="evenodd" stroke="#79bda8" stroke-dasharray="none" stroke-linecap="butt" stroke-linejoin="miter" stroke-miterlimit="4" stroke-opacity="1" stroke-width="500" transform="translate(-1360.51,-244.164) translate(0,0) scale(0.349428,0.622295) translate(0,0)"/>
        </mask>
        <mask id="Mask-9">
            <path id="path5806-10" d="M293.89,418.887M626.278,469.794C520.325,444.341,414.371,418.888,293.585,418.888M626.264,469.79C732.217,495.243,838.17,520.695,958.953,520.695M1291.34,469.789C1185.39,495.242,1079.43,520.695,958.656,520.695M1291.32,469.793C1397.28,444.341,1503.23,418.888,1624.02,418.888M1956.4,469.794C1850.45,444.341,1744.49,418.889,1623.71,418.889M1956.34,469.782C2062.29,495.235,2168.25,520.688,2289.04,520.688M2621.42,469.781C2515.46,495.234,2409.51,520.687,2288.73,520.687M2621.4,469.785C2727.35,444.333,2833.31,418.88,2954.1,418.88M3286.48,469.786C3180.52,444.334,3074.58,418.881,2953.79,418.881M3286.65,469.797C3392.6,495.25,3498.55,520.703,3619.34,520.703M3951.73,469.796C3845.78,495.249,3739.82,520.702,3619.03,520.702M3951.71,469.801C4057.65,444.348,4163.61,418.895,4284.4,418.895M4616.79,469.802C4510.83,444.349,4404.88,418.896,4284.09,418.896M4616.73,469.789C4722.68,495.242,4828.62,520.695,4949.41,520.695M5281.81,469.788C5175.85,495.241,5069.9,520.694,4949.11,520.694M5281.78,469.793C5387.74,444.34,5493.68,418.887,5614.47,418.887M5946.86,469.794C5840.91,444.341,5734.95,418.888,5614.17,418.888M5946.85,469.79C6052.8,495.243,6158.75,520.695,6279.54,520.695M6611.93,469.789C6505.98,495.242,6400.02,520.695,6279.23,520.695M6611.91,469.793C6717.87,444.341,6823.81,418.888,6944.6,418.888M6944.29,418.889" fill="none" fill-opacity="0.75" fill-rule="evenodd" stroke="#79bda8" stroke-dasharray="none" stroke-linecap="butt" stroke-linejoin="miter" stroke-miterlimit="4" stroke-opacity="1" stroke-width="500" transform="translate(-68.3694,-255.262) translate(0,0) scale(0.349428,0.622295) translate(0,0)"/>
        </mask>
        <mask id="Mask-10">
            <path id="path5806-11" d="M293.89,418.887M626.278,469.794C520.325,444.341,414.371,418.888,293.585,418.888M626.264,469.79C732.217,495.243,838.17,520.695,958.953,520.695M1291.34,469.789C1185.39,495.242,1079.43,520.695,958.656,520.695M1291.32,469.793C1397.28,444.341,1503.23,418.888,1624.02,418.888M1956.4,469.794C1850.45,444.341,1744.49,418.889,1623.71,418.889M1956.34,469.782C2062.29,495.235,2168.25,520.688,2289.04,520.688M2621.42,469.781C2515.46,495.234,2409.51,520.687,2288.73,520.687M2621.4,469.785C2727.35,444.333,2833.31,418.88,2954.1,418.88M3286.48,469.786C3180.52,444.334,3074.58,418.881,2953.79,418.881M3286.65,469.797C3392.6,495.25,3498.55,520.703,3619.34,520.703M3951.73,469.796C3845.78,495.249,3739.82,520.702,3619.03,520.702M3951.71,469.801C4057.65,444.348,4163.61,418.895,4284.4,418.895M4616.79,469.802C4510.83,444.349,4404.88,418.896,4284.09,418.896M4616.73,469.789C4722.68,495.242,4828.62,520.695,4949.41,520.695M5281.81,469.788C5175.85,495.241,5069.9,520.694,4949.11,520.694M5281.78,469.793C5387.74,444.34,5493.68,418.887,5614.47,418.887M5946.86,469.794C5840.91,444.341,5734.95,418.888,5614.17,418.888M5946.85,469.79C6052.8,495.243,6158.75,520.695,6279.54,520.695M6611.93,469.789C6505.98,495.242,6400.02,520.695,6279.23,520.695M6611.91,469.793C6717.87,444.341,6823.81,418.888,6944.6,418.888M6944.29,418.889" fill="none" fill-opacity="0.75" fill-rule="evenodd" stroke="#79bda8" stroke-dasharray="none" stroke-linecap="butt" stroke-linejoin="miter" stroke-miterlimit="4" stroke-opacity="1" stroke-width="500" transform="translate(-1360.51,-244.164) translate(0,0) scale(0.349428,0.622295) translate(0,0)"/>
        </mask>
        <mask id="Mask-2">
            <path id="path5806-2" d="M293.89,418.887M626.278,469.794C520.325,444.341,414.371,418.888,293.585,418.888M626.264,469.79C732.217,495.243,838.17,520.695,958.953,520.695M1291.34,469.789C1185.39,495.242,1079.43,520.695,958.656,520.695M1291.32,469.793C1397.28,444.341,1503.23,418.888,1624.02,418.888M1956.4,469.794C1850.45,444.341,1744.49,418.889,1623.71,418.889M1956.34,469.782C2062.29,495.235,2168.25,520.688,2289.04,520.688M2621.42,469.781C2515.46,495.234,2409.51,520.687,2288.73,520.687M2621.4,469.785C2727.35,444.333,2833.31,418.88,2954.1,418.88M3286.48,469.786C3180.52,444.334,3074.58,418.881,2953.79,418.881M3286.65,469.797C3392.6,495.25,3498.55,520.703,3619.34,520.703M3951.73,469.796C3845.78,495.249,3739.82,520.702,3619.03,520.702M3951.71,469.801C4057.65,444.348,4163.61,418.895,4284.4,418.895M4616.79,469.802C4510.83,444.349,4404.88,418.896,4284.09,418.896M4616.73,469.789C4722.68,495.242,4828.62,520.695,4949.41,520.695M5281.81,469.788C5175.85,495.241,5069.9,520.694,4949.11,520.694M5281.78,469.793C5387.74,444.34,5493.68,418.887,5614.47,418.887M5946.86,469.794C5840.91,444.341,5734.95,418.888,5614.17,418.888M5946.85,469.79C6052.8,495.243,6158.75,520.695,6279.54,520.695M6611.93,469.789C6505.98,495.242,6400.02,520.695,6279.23,520.695M6611.91,469.793C6717.87,444.341,6823.81,418.888,6944.6,418.888M6944.29,418.889" fill="none" fill-opacity="0.75" fill-rule="evenodd" stroke="#79bda8" stroke-dasharray="none" stroke-linecap="butt" stroke-linejoin="miter" stroke-miterlimit="4" stroke-opacity="1" stroke-width="500" transform="translate(-962.632,-130.918) translate(0,0) scale(0.349428,0.622295) translate(0,0)"/>
        </mask>
        <mask id="Mask-1">
            <path id="path5806-4" d="M293.89,418.887M626.278,469.794C520.325,444.341,414.371,418.888,293.585,418.888M626.264,469.79C732.217,495.243,838.17,520.695,958.953,520.695M1291.34,469.789C1185.39,495.242,1079.43,520.695,958.656,520.695M1291.32,469.793C1397.28,444.341,1503.23,418.888,1624.02,418.888M1956.4,469.794C1850.45,444.341,1744.49,418.889,1623.71,418.889M1956.34,469.782C2062.29,495.235,2168.25,520.688,2289.04,520.688M2621.42,469.781C2515.46,495.234,2409.51,520.687,2288.73,520.687M2621.4,469.785C2727.35,444.333,2833.31,418.88,2954.1,418.88M3286.48,469.786C3180.52,444.334,3074.58,418.881,2953.79,418.881M3286.65,469.797C3392.6,495.25,3498.55,520.703,3619.34,520.703M3951.73,469.796C3845.78,495.249,3739.82,520.702,3619.03,520.702M3951.71,469.801C4057.65,444.348,4163.61,418.895,4284.4,418.895M4616.79,469.802C4510.83,444.349,4404.88,418.896,4284.09,418.896M4616.73,469.789C4722.68,495.242,4828.62,520.695,4949.41,520.695M5281.81,469.788C5175.85,495.241,5069.9,520.694,4949.11,520.694M5281.78,469.793C5387.74,444.34,5493.68,418.887,5614.47,418.887M5946.86,469.794C5840.91,444.341,5734.95,418.888,5614.17,418.888M5946.85,469.79C6052.8,495.243,6158.75,520.695,6279.54,520.695M6611.93,469.789C6505.98,495.242,6400.02,520.695,6279.23,520.695M6611.91,469.793C6717.87,444.341,6823.81,418.888,6944.6,418.888M6944.29,418.889" fill="none" fill-opacity="0.75" fill-rule="evenodd" stroke="#79bda8" stroke-dasharray="none" stroke-linecap="butt" stroke-linejoin="miter" stroke-miterlimit="4" stroke-opacity="1" stroke-width="500" transform="translate(-1788.7,-118.297) translate(0,0) scale(0.349428,0.622295) translate(0,0)"/>
        </mask>
    </defs>
    <g id="instanano-logo" transform="translate(786.938,338.928) translate(-804.398,-382.071)">
        <g id="group-instanan" transform="translate(575.643,315.918) translate(-575.643,-315.918)" style="white-space: pre;">
            <text id="text-i" fill="#a26060" font-size="264" font-family="'Arial Rounded MT Bold'" letter-spacing="0em" word-spacing="0em" stroke="none" text-anchor="start" opacity="1" transform="translate(23,249.82)" style="line-height: 21px; white-space: pre;">I</text>
            <text id="text-n" fill="#a26060" font-size="264" font-family="'Arial Rounded MT Bold'" letter-spacing="0em" word-spacing="0em" stroke="none" text-anchor="start" opacity="1" transform="translate(207,253.903)" style="line-height: 21px; white-space: pre;">n</text>
            <text id="text-s" fill="#a26060" font-size="264" font-family="'Arial Rounded MT Bold'" letter-spacing="0em" word-spacing="0em" stroke="none" text-anchor="start" opacity="1" transform="translate(468.25,253.903)" style="line-height: 21px; white-space: pre;">s </text>
            <text id="text-t" fill="#a26060" font-size="264" font-family="'Arial Rounded MT Bold'" letter-spacing="0em" word-spacing="0em" stroke="none" text-anchor="start" opacity="1" transform="translate(722.25,249.82)" style="line-height: 21px; white-space: pre;">t </text>
            <text id="text-a" fill="#a26060" font-size="264" font-family="'Arial Rounded MT Bold'" letter-spacing="0em" word-spacing="0em" stroke="none" text-anchor="start" opacity="1" transform="translate(928.41,253.903)" style="line-height: 21px; white-space: pre;">a </text>
            <path id="NAN2" fill="#dddddd" fill-opacity="0.75" opacity="1" stroke="none" d="M33.6182,-322.119L126.562,-322.119L247.852,-143.921L247.852,-322.119L341.675,-322.119L341.675,0L247.852,0L127.222,-176.88L127.222,0L33.6182,0ZM606.012,-53.1738L492.633,-53.1738L477.032,0L375.299,0L496.368,-322.119L604.913,-322.119L725.982,0L621.832,0ZM585.138,-122.827L549.542,-238.623L514.166,-122.827ZM758.509,-322.119L851.453,-322.119L972.742,-143.921L972.742,-322.119L1066.57,-322.119L1066.57,0L972.742,0L852.112,-176.88L852.112,0L758.509,0Z" transform="translate(-11.625,631.836)"/>
            <path id="NAN1" fill="#e7e7e7" fill-opacity="0.75" opacity="1" stroke="none" d="M33.6182,-322.119L126.562,-322.119L247.852,-143.921L247.852,-322.119L341.675,-322.119L341.675,0L247.852,0L127.222,-176.88L127.222,0L33.6182,0ZM606.012,-53.1738L492.633,-53.1738L477.032,0L375.299,0L496.368,-322.119L604.913,-322.119L725.982,0L621.832,0ZM585.138,-122.827L549.542,-238.623L514.166,-122.827ZM758.509,-322.119L851.453,-322.119L972.742,-143.921L972.742,-322.119L1066.57,-322.119L1066.57,0L972.742,0L852.112,-176.88L852.112,0L758.509,0Z" transform="translate(-11.625,631.836)"/>
            <path id="n1-wave2" d="M33.6182,-322.119L126.562,-322.119L247.852,-143.921L247.852,-322.119L341.675,-322.119L341.675,0L247.852,0L127.222,-176.88L127.222,0L33.6182,0Z" fill="#75c38d" fill-opacity="0.75" opacity="1" stroke="none" mask="url(#Mask-3)" transform="translate(-11.625,631.836)"/>
            <path id="n1-wave1" d="M33.6182,-322.119L126.562,-322.119L247.852,-143.921L247.852,-322.119L341.675,-322.119L341.675,0L247.852,0L127.222,-176.88L127.222,0L33.6182,0Z" fill="#75c38d" fill-opacity="0.75" opacity="1" stroke="none" mask="url(#Mask-6)" transform="translate(-11.625,631.836)"/>
            <path id="a2-wave2" d="M606.012,-53.1738L492.633,-53.1738L477.032,0L375.299,0L496.368,-322.119L604.913,-322.119L725.982,0L621.832,0Z" fill="#75c38d" fill-opacity="0.75" opacity="1" stroke="none" mask="url(#Mask-4)" transform="translate(-11.625,631.836)"/>
            <path id="a1-wave1" d="M606.012,-53.1738L492.633,-53.1738L477.032,0L375.299,0L496.368,-322.119L604.913,-322.119L725.982,0L621.832,0Z" fill="#75c38d" fill-opacity="0.75" opacity="1" stroke="none" mask="url(#Mask-5)" transform="translate(-11.625,631.836)"/>
            <path id="a2-wave2-2" d="M585.138,-122.827L549.542,-238.623L514.166,-122.827Z" fill="#75c38d" fill-opacity="0.75" opacity="1" stroke="none" mask="url(#Mask-7)" transform="translate(-11.625,631.836)"/>
            <path id="a2-wave1" d="M585.138,-122.827L549.542,-238.623L514.166,-122.827Z" fill="#75c38d" fill-opacity="0.75" opacity="1" stroke="none" mask="url(#Mask-8)" transform="translate(-11.625,631.836)"/>
            <path id="n2-wave2" d="M758.509,-322.119L851.453,-322.119L972.742,-143.921L972.742,-322.119L1066.57,-322.119L1066.57,0L972.742,0L852.112,-176.88L852.112,0L758.509,0Z" fill="#75c38d" fill-opacity="0.75" opacity="1" stroke="none" mask="url(#Mask-9)" transform="translate(-11.625,631.836)"/>
            <path id="n2-wave1" d="M758.509,-322.119L851.453,-322.119L972.742,-143.921L972.742,-322.119L1066.57,-322.119L1066.57,0L972.742,0L852.112,-176.88L852.112,0L758.509,0Z" fill="#75c38d" fill-opacity="0.75" opacity="1" stroke="none" mask="url(#Mask-10)" transform="translate(-11.625,631.836)"/>
        </g>
        <g id="fullrb" transform="translate(1348.46,400.867) translate(-260.335,-351.676)">
            <ellipse id="rbout" rx="273.5" ry="273.5" fill="#f2f2f2" stroke="none" filter="url(#Filter-0)" transform="translate(260.335,456.778) scale(0.951865,0.943962)"/>
            <rect id="rbneck" width="201" height="184" fill="#f2f2f2" stroke="none" filter="url(#Filter-1)" transform="translate(340.835,168.356) rotate(15.0062) scale(0.940687,0.942391) translate(-100.5,-88.5)"/>
            <ellipse id="rbin2" rx="237.589" ry="237.589" fill="#a9d7b7" stroke="none" mask="url(#Mask-2)" transform="translate(231.805,428.249) translate(28.5293,28.5293)"/>
            <ellipse id="rbin1" rx="237.589" ry="237.589" fill="#75c38d" stroke="none" mask="url(#Mask-1)" transform="translate(231.805,428.249) translate(28.5293,28.5293)"/>
            <ellipse id="bubble3" rx="33" ry="33" stroke="none" fill="#f2f2f2" fill-opacity="0.75" stroke-width="0" opacity="0" transform="translate(245.815,661.141) translate(0,0) scale(0.687784,0.687784) translate(0,0)"/>
            <ellipse id="bubble2" rx="33" ry="33" stroke="none" fill="#f2f2f2" fill-opacity="0.75" stroke-width="0" opacity="0" transform="translate(293.415,658.936) translate(0,0) scale(0.754592,0.754592) translate(0,0)"/>
            <ellipse id="bubble1" rx="33" ry="33" stroke="none" fill="#f2f2f2" fill-opacity="0.75" stroke-width="0" opacity="1" transform="translate(260.335,633.035) translate(0,0) scale(0.785385,0.785385) translate(0,0)"/>
            <rect id="rbneck-2" width="349.65" height="163.9" fill="#dddddd" stroke="none" rx="70" filter="url(#Filter-2)" stroke-linecap="butt" transform="translate(368.215,79.8681) rotate(15.0062) scale(0.78149,0.562097) translate(-174.825,-81.95)"/>
        </g>
    </g>
    <script xlink:href="keyshapejs-1.1.1.min.js"/>
    <script><![CDATA[if(KeyshapeJS.version.indexOf('1.')!=0)throw Error('Expected KeyshapeJS v1.*.*');window.ks=document.ks=KeyshapeJS;(function(ks){
ks.animate("#path5806-6",[{p:'mpath',t:[0,2000],v:['0%','100%'],e:[[0],[0]],iterations:Infinity,mp:"M-1360.51,-244.164L-430.273,-244.164"}],
"#path5806-7",[{p:'mpath',t:[0,2000],v:['0%','100%'],e:[[0],[0]],iterations:Infinity,mp:"M-68.3694,-255.262L-998.021,-255.639"}],
"#path5806-3",[{p:'mpath',t:[0,2000],v:['0%','100%'],e:[[0],[0]],iterations:Infinity,mp:"M-68.3694,-255.262L-998.021,-255.639"}],
"#path5806-5",[{p:'mpath',t:[0,2000],v:['0%','100%'],e:[[0],[0]],iterations:Infinity,mp:"M-1360.51,-244.164L-430.273,-244.164"}],
"#path5806-8",[{p:'mpath',t:[0,2000],v:['0%','100%'],e:[[0],[0]],iterations:Infinity,mp:"M-68.3694,-255.262L-998.021,-255.639"}],
"#path5806-9",[{p:'mpath',t:[0,2000],v:['0%','100%'],e:[[0],[0]],iterations:Infinity,mp:"M-1360.51,-244.164L-430.273,-244.164"}],
"#path5806-10",[{p:'mpath',t:[0,2000],v:['0%','100%'],e:[[0],[0]],iterations:Infinity,mp:"M-68.3694,-255.262L-998.021,-255.639"}],
"#path5806-11",[{p:'mpath',t:[0,2000],v:['0%','100%'],e:[[0],[0]],iterations:Infinity,mp:"M-1360.51,-244.164L-430.273,-244.164"}],
"#path5806-2",[{p:'mpath',t:[0,2000],v:['0%','100%'],e:[[0],[0]],iterations:Infinity,mp:"M-962.632,-130.918L-1884.75,-129.918"}],
"#path5806-4",[{p:'mpath',t:[0,2000],v:['0%','100%'],e:[[1,0,0,1,1],[0]],iterations:Infinity,mp:"M-1788.7,-118.297C-1356.54,-110.574,-1172.16,-111.449,-853.23,-118.166"}],
"#bubble3",[{p:'mpath',t:[0,2000,4000],v:['0%','0.161019%','100%'],e:[[0],[1,0.42,0,1,1],[0]],iterations:Infinity,mp:"M245.815,661.141L245.815,660.141C385.875,536.42,408.145,324.68,339.985,79.868"},{p:'opacity',t:[0,1900,2000,4000],v:[0,0,1,1],e:[[0],[0],[0],[0]],iterations:Infinity},{p:'fill',t:[0,2300,3700,4000],v:['#f2f2f2','#f2f2f2','#67ac7d','#67ac7d'],e:[[0],[0],[0],[0]],iterations:Infinity}],
"#bubble2",[{p:'mpath',t:[0,1000,3000,4000],v:['0%','0.159608%','99.283673%','100%'],e:[[0],[1,0.42,0,1,1],[0],[0]],iterations:Infinity,mp:"M293.415,658.936L293.415,657.936C184.985,420.06,319.955,151.771,413.335,87.381L408.847,87.3754"},{p:'opacity',t:[0,900,1000,3000,3400,4000],v:[0,0,1,1,0,0],e:[[0],[0],[0],[0],[0],[0]],iterations:Infinity},{p:'fill',t:[0,1400,2700,4000],v:['#f2f2f2','#f2f2f2','#67ac7d','#67ac7d'],e:[[0],[0],[0],[0]],iterations:Infinity}],
"#bubble1",[{p:'mpath',t:[0,2000,4000],v:['0%','98.839019%','100%'],e:[[1,0.42,0,1,1],[0],[0]],iterations:Infinity,mp:"M260.335,633.035C141.945,535.074,198.025,285.928,368.215,87.3813L362.516,83.0888"},{p:'opacity',t:[0,2000,2400,4000],v:[1,1,0,0],e:[[0],[0],[0],[0]],iterations:Infinity},{p:'fill',t:[0,400,1700,4000],v:['#f2f2f2','#f2f2f2','#67ac7d','#67ac7d'],e:[[0],[0],[0],[0]],iterations:Infinity}],
{autoremove:false}).range(0,Infinity).loop(true);
if(document.location.search.substr(1).split('&').indexOf('global=paused')>=0)ks.globalPause()})(KeyshapeJS);
]]></script>
</svg>
